<svg width="22" height="26" xmlns="http://www.w3.org/2000/svg"><g fill="none"><path fill="#FF7212" d="M.144 22.692V9.768l16.407 9.772V26L5.45 19.525v6.243z"/><path fill="#FFF" d="M5.643 6.434 0 9.838l16.551 9.702 5.43-3.47z"/><path fill="#FF9650" d="M5.449 19.525v6.243l5.414-3.076z"/><path fill="#0259FF" d="m5.449.025-.02 6.404 16.551 9.637.02-12.91L16.571 0l-.02 6.455z"/><path fill="#0136FC" d="M.17 3.455v6.449l5.259-3.475.02-6.404z"/><path d="M11.356 3.44C11.461 3.393 16.571 0 16.571 0v6.455l-5.215-3.016z" fill="#83B1FF"/><path fill="#FF4E00" d="m22 16.066-5.449 3.474V26L22 22.672z"/></g></svg>